%FSAX43Y43*%
%MOMM*%
G71*
G01*
G75*
%ADD10O,2.000X1.000*%
%ADD11R,2.000X1.000*%
%ADD12R,1.000X2.000*%
%ADD13C,0.700*%
%ADD14C,0.254*%
%ADD15C,0.300*%
%ADD16R,2.000X2.000*%
%ADD17C,2.000*%
%ADD18C,1.500*%
%ADD19R,1.500X1.500*%
%ADD20R,1.500X1.500*%
%ADD21C,1.200*%
%ADD22C,1.400*%
%ADD23C,1.600*%
%ADD24C,6.000*%
%ADD25C,0.200*%
%ADD26C,0.127*%
%ADD27R,2.203X2.203*%
%ADD28C,2.203*%
%ADD29C,1.703*%
%ADD30R,1.703X1.703*%
%ADD31R,1.703X1.703*%
%ADD32C,1.403*%
%ADD33C,1.603*%
%ADD34C,1.803*%
%ADD35C,6.203*%
%ADD36C,0.169*%
D26*
X0043489Y0067771D02*
X0044489D01*
X0043989Y0067271D02*
Y0068271D01*
X0043489Y0072771D02*
X0044489D01*
X0043989Y0072271D02*
Y0073271D01*
X0038489Y0067771D02*
X0039489D01*
X0038989Y0067271D02*
Y0068271D01*
X0038489Y0072771D02*
X0039489D01*
X0038989Y0072271D02*
Y0073271D01*
X0061526Y0068199D02*
X0062426D01*
X0061976Y0067749D02*
Y0068649D01*
X0058986Y0068199D02*
X0059886D01*
X0059436Y0067749D02*
Y0068649D01*
X0056446Y0068199D02*
X0057346D01*
X0056896Y0067749D02*
Y0068649D01*
X0053906Y0068199D02*
X0054806D01*
X0054356Y0067749D02*
Y0068649D01*
X0048826Y0068199D02*
X0049726D01*
X0049276Y0067749D02*
Y0068649D01*
X0046286Y0068199D02*
X0047186D01*
X0046736Y0067749D02*
Y0068649D01*
X0051366Y0068199D02*
X0052266D01*
X0051816Y0067749D02*
Y0068649D01*
X0066352Y0064770D02*
X0067252D01*
X0066802Y0064320D02*
Y0065220D01*
X0066352Y0062230D02*
X0067252D01*
X0066802Y0061780D02*
Y0062680D01*
X0066352Y0059690D02*
X0067252D01*
X0066802Y0059240D02*
Y0060140D01*
X0035745Y0061722D02*
X0036645D01*
X0036195Y0061272D02*
Y0062172D01*
X0035745Y0059182D02*
X0036645D01*
X0036195Y0058732D02*
Y0059632D01*
X0035745Y0056642D02*
X0036645D01*
X0036195Y0056192D02*
Y0057092D01*
X0079052Y0057658D02*
X0079952D01*
X0079502Y0057208D02*
Y0058108D01*
X0079052Y0060198D02*
X0079952D01*
X0079502Y0059748D02*
Y0060648D01*
X0079052Y0062738D02*
X0079952D01*
X0079502Y0062288D02*
Y0063188D01*
X0079052Y0065278D02*
X0079952D01*
X0079502Y0064828D02*
Y0065728D01*
X0079052Y0067818D02*
X0079952D01*
X0079502Y0067368D02*
Y0068268D01*
X0068384Y0041529D02*
X0069284D01*
X0068834Y0041079D02*
Y0041979D01*
X0068384Y0044069D02*
X0069284D01*
X0068834Y0043619D02*
Y0044519D01*
X0068384Y0046609D02*
X0069284D01*
X0068834Y0046159D02*
Y0047059D01*
X0068384Y0049149D02*
X0069284D01*
X0068834Y0048699D02*
Y0049599D01*
X0068384Y0051689D02*
X0069284D01*
X0068834Y0051239D02*
Y0052139D01*
X0068384Y0054229D02*
X0069284D01*
X0068834Y0053779D02*
Y0054679D01*
X0071659Y0065913D02*
X0072359D01*
X0072009Y0065563D02*
Y0066263D01*
X0071659Y0068453D02*
X0072359D01*
X0072009Y0068103D02*
Y0068803D01*
X0035718Y0070104D02*
X0036418D01*
X0036068Y0069754D02*
Y0070454D01*
X0035718Y0067564D02*
X0036418D01*
X0036068Y0067214D02*
Y0067914D01*
X0046159Y0041402D02*
X0047059D01*
X0046609Y0040952D02*
Y0041852D01*
X0048699Y0041402D02*
X0049599D01*
X0049149Y0040952D02*
Y0041852D01*
X0051239Y0041402D02*
X0052139D01*
X0051689Y0040952D02*
Y0041852D01*
X0053779Y0041402D02*
X0054679D01*
X0054229Y0040952D02*
Y0041852D01*
X0058859Y0041402D02*
X0059759D01*
X0059309Y0040952D02*
Y0041852D01*
X0061399Y0041402D02*
X0062299D01*
X0061849Y0040952D02*
Y0041852D01*
X0056319Y0041402D02*
X0057219D01*
X0056769Y0040952D02*
Y0041852D01*
X0037777Y0051816D02*
X0038677D01*
X0038227Y0051366D02*
Y0052266D01*
X0037777Y0049276D02*
X0038677D01*
X0038227Y0048826D02*
Y0049726D01*
X0037777Y0046736D02*
X0038677D01*
X0038227Y0046286D02*
Y0047186D01*
X0037777Y0044196D02*
X0038677D01*
X0038227Y0043746D02*
Y0044646D01*
X0037777Y0041656D02*
X0038677D01*
X0038227Y0041206D02*
Y0042106D01*
X0040596Y0061595D02*
X0041446D01*
X0041021Y0061170D02*
Y0062020D01*
X0040596Y0053975D02*
X0041446D01*
X0041021Y0053550D02*
Y0054400D01*
X0038564Y0064008D02*
X0039414D01*
X0038989Y0063583D02*
Y0064433D01*
X0038564Y0056388D02*
X0039414D01*
X0038989Y0055963D02*
Y0056813D01*
X0065767Y0073787D02*
X0066567D01*
X0066167Y0073387D02*
Y0074187D01*
X0065767Y0071247D02*
X0066567D01*
X0066167Y0070847D02*
Y0071647D01*
X0071659Y0062738D02*
X0072359D01*
X0072009Y0062388D02*
Y0063088D01*
X0071659Y0060198D02*
X0072359D01*
X0072009Y0059848D02*
Y0060548D01*
X0075140Y0062611D02*
X0075990D01*
X0075565Y0062186D02*
Y0063036D01*
X0075140Y0070231D02*
X0075990D01*
X0075565Y0069806D02*
Y0070656D01*
X0076156Y0045212D02*
X0077006D01*
X0076581Y0044787D02*
Y0045637D01*
X0076156Y0052832D02*
X0077006D01*
X0076581Y0052407D02*
Y0053257D01*
X0073743Y0052705D02*
X0074593D01*
X0074168Y0052280D02*
Y0053130D01*
X0073743Y0045085D02*
X0074593D01*
X0074168Y0044660D02*
Y0045510D01*
X0071457Y0045212D02*
X0072307D01*
X0071882Y0044787D02*
Y0045637D01*
X0071457Y0052832D02*
X0072307D01*
X0071882Y0052407D02*
Y0053257D01*
X0072922Y0040894D02*
X0075922D01*
X0074422Y0039394D02*
Y0042394D01*
X0050316Y0074041D02*
X0053316D01*
X0051816Y0072541D02*
Y0075541D01*
M02*
