%FSAX43Y43*%
%MOMM*%
G71*
G01*
G75*
G04 Layer_Physical_Order=1*
G04 Layer_Color=255*
%ADD10O,2.000X1.000*%
%ADD11R,2.000X1.000*%
%ADD12R,1.000X2.000*%
%ADD13C,0.700*%
%ADD14C,0.254*%
%ADD15C,0.300*%
%ADD16R,2.000X2.000*%
%ADD17C,2.000*%
%ADD18C,1.500*%
%ADD19R,1.500X1.500*%
%ADD20R,1.500X1.500*%
%ADD21C,1.200*%
%ADD22C,1.400*%
%ADD23C,1.600*%
%ADD24C,6.000*%
D10*
X0047244Y0058801D02*
D03*
D11*
Y0057531D02*
D03*
Y0056261D02*
D03*
Y0054991D02*
D03*
Y0053721D02*
D03*
Y0052451D02*
D03*
Y0051181D02*
D03*
X0059864D02*
D03*
Y0052451D02*
D03*
Y0053721D02*
D03*
Y0054991D02*
D03*
Y0056261D02*
D03*
Y0057531D02*
D03*
Y0058801D02*
D03*
D12*
X0049744Y0048681D02*
D03*
X0051014D02*
D03*
X0052284D02*
D03*
X0053554D02*
D03*
X0054824D02*
D03*
X0056094D02*
D03*
X0057364D02*
D03*
Y0061301D02*
D03*
X0056094D02*
D03*
X0054824D02*
D03*
X0053554D02*
D03*
X0052284D02*
D03*
X0051014D02*
D03*
X0049744D02*
D03*
D13*
X0036195Y0070104D02*
X0043688Y0062611D01*
X0036068Y0070104D02*
X0036195D01*
X0043561Y0068199D02*
X0046736D01*
X0041656Y0070104D02*
X0043561Y0068199D01*
X0038481Y0070104D02*
X0041656D01*
X0037277Y0071308D02*
X0038481Y0070104D01*
X0035569Y0071308D02*
X0037277D01*
X0061849Y0041402D02*
Y0043434D01*
X0057364Y0047919D02*
X0061849Y0043434D01*
X0056094Y0046649D02*
Y0048681D01*
Y0046649D02*
X0059309Y0043434D01*
Y0041402D02*
Y0043434D01*
X0054824Y0046522D02*
Y0048681D01*
Y0046522D02*
X0056769Y0044577D01*
Y0041402D02*
Y0044577D01*
X0053554Y0045252D02*
Y0048681D01*
Y0045252D02*
X0054229Y0044577D01*
Y0041402D02*
Y0044577D01*
X0052284Y0045172D02*
Y0048681D01*
X0051689Y0044577D02*
X0052284Y0045172D01*
X0051689Y0041402D02*
Y0044577D01*
X0051014Y0046442D02*
Y0048681D01*
X0049149Y0044577D02*
X0051014Y0046442D01*
X0049149Y0041402D02*
Y0044577D01*
X0046609Y0045546D02*
X0049744Y0048681D01*
X0046609Y0041402D02*
Y0045546D01*
X0046736Y0064309D02*
Y0068199D01*
Y0064309D02*
X0049744Y0061301D01*
X0049276Y0064897D02*
Y0068199D01*
Y0064897D02*
X0051014Y0063159D01*
Y0061301D02*
Y0063159D01*
X0051816Y0064643D02*
Y0068199D01*
Y0064643D02*
X0052284Y0064175D01*
Y0061301D02*
Y0064175D01*
X0054356Y0065024D02*
Y0068199D01*
X0053554Y0064222D02*
X0054356Y0065024D01*
X0053554Y0061301D02*
Y0064222D01*
X0056896Y0065659D02*
Y0068199D01*
X0054824Y0063587D02*
X0056896Y0065659D01*
X0054824Y0061301D02*
Y0063587D01*
X0056094Y0061301D02*
Y0062952D01*
X0059436Y0066294D01*
Y0068199D01*
X0057364Y0061936D02*
X0061976Y0066548D01*
Y0068199D01*
X0043307Y0056261D02*
X0047244D01*
X0040132Y0057531D02*
X0047244D01*
Y0056261D02*
X0049022D01*
X0049530Y0056769D01*
Y0058801D01*
X0049022Y0056261D02*
X0052070Y0053213D01*
X0055478D01*
X0063479Y0042693D02*
Y0045212D01*
Y0042693D02*
X0064643Y0041529D01*
X0068834D01*
X0072517Y0065913D02*
X0073152Y0065278D01*
X0072771Y0068453D02*
X0073406Y0067818D01*
X0046736Y0068199D02*
Y0068453D01*
X0048133Y0069850D01*
X0062738D01*
X0063373Y0069215D01*
Y0063627D02*
Y0069215D01*
X0062738Y0070358D02*
X0066167Y0073787D01*
X0062738Y0069850D02*
Y0070358D01*
X0059864Y0058801D02*
X0064389D01*
X0065024Y0059436D01*
X0051014Y0056301D02*
Y0061301D01*
Y0056301D02*
X0053148Y0054167D01*
X0055873D01*
X0058260Y0051780D01*
X0065971Y0044069D02*
X0068834D01*
X0059963Y0050077D02*
X0065971Y0044069D01*
X0055478Y0052472D02*
Y0053213D01*
Y0052472D02*
X0057404Y0050546D01*
X0062872Y0045212D02*
X0063479D01*
X0058808Y0049276D02*
X0062872Y0045212D01*
X0068834Y0044069D02*
X0070485D01*
X0071501Y0045085D01*
X0074168D01*
X0059864Y0056261D02*
X0064516D01*
X0066548Y0054229D01*
X0072644D02*
X0074168Y0052705D01*
X0066548Y0054229D02*
X0068834D01*
X0072644D01*
X0069977Y0052832D02*
X0071628D01*
X0068834Y0051689D02*
X0069977Y0052832D01*
X0066675Y0051689D02*
X0068834D01*
X0064643Y0053721D02*
X0066675Y0051689D01*
X0059864Y0053721D02*
X0064643D01*
X0068834Y0049149D02*
X0075438D01*
X0076581Y0050292D01*
Y0052832D01*
X0073787Y0055626D02*
X0076581Y0052832D01*
X0067183Y0055626D02*
X0073787D01*
X0065278Y0057531D02*
X0067183Y0055626D01*
X0059864Y0057531D02*
X0065278D01*
X0068834Y0046609D02*
X0075184D01*
X0076581Y0045212D01*
X0059817Y0051181D02*
X0059864D01*
X0059967Y0051031D02*
X0060358D01*
X0064780Y0046609D01*
X0068834D01*
X0059817Y0051181D02*
X0059967Y0051031D01*
X0059864Y0052451D02*
X0062865D01*
X0067310Y0048006D01*
X0076200D02*
X0077978Y0049784D01*
X0070866Y0048006D02*
X0076200D01*
X0059698Y0055157D02*
X0059864Y0054991D01*
X0058614Y0055157D02*
X0059698D01*
X0058260Y0055511D02*
X0058614Y0055157D01*
X0058260Y0055511D02*
Y0059551D01*
X0058614Y0059905D01*
X0062191D01*
X0062865Y0060579D01*
X0038227Y0041656D02*
X0042037D01*
X0044831Y0044450D01*
Y0046609D01*
X0047244Y0049022D01*
Y0051181D01*
X0038227Y0044196D02*
X0042672D01*
X0043815Y0045339D01*
Y0047879D01*
X0045466Y0049530D01*
Y0052197D01*
X0045593Y0052324D02*
X0047117D01*
X0038227Y0046736D02*
X0041529D01*
X0042418Y0047625D01*
Y0048895D01*
X0044196Y0050673D01*
Y0052832D01*
X0045085Y0053721D01*
X0047244D01*
X0038227Y0049276D02*
X0040386D01*
X0042799Y0051689D01*
Y0053848D01*
X0043942Y0054991D01*
X0047244D01*
X0041021Y0053975D02*
X0043307Y0056261D01*
X0038989Y0056388D02*
X0040132Y0057531D01*
X0043815Y0058801D02*
X0047244D01*
X0041021Y0061595D02*
X0043815Y0058801D01*
X0038227Y0051816D02*
Y0052324D01*
X0036195Y0054356D02*
X0038227Y0052324D01*
X0036195Y0054356D02*
Y0056642D01*
X0041021Y0061468D01*
Y0061595D01*
X0045720Y0062611D02*
X0049530Y0058801D01*
X0065024Y0059436D02*
X0071247D01*
X0072136Y0060325D02*
X0073279D01*
X0075565Y0062611D01*
X0079375D01*
X0079502Y0062738D01*
X0071247Y0059436D02*
X0072009Y0060198D01*
X0072136Y0060325D01*
X0063373Y0063627D02*
X0064770Y0062230D01*
X0066802D01*
X0073152Y0065278D02*
X0079502D01*
X0072009Y0062738D02*
Y0065913D01*
X0071501Y0062230D02*
X0072009Y0062738D01*
X0066802Y0062230D02*
X0071501D01*
X0066802Y0064770D02*
X0070485Y0068453D01*
X0072009D01*
X0077978Y0049784D02*
Y0056134D01*
X0079502Y0057658D01*
X0073406Y0067818D02*
X0079502D01*
X0066167Y0071247D02*
X0074549D01*
X0075565Y0070231D01*
X0036068Y0066294D02*
Y0067564D01*
X0036195Y0061722D02*
Y0066548D01*
X0034864Y0070603D02*
X0035569Y0071308D01*
X0034864Y0068900D02*
Y0070603D01*
Y0068900D02*
X0036068Y0067696D01*
X0043688Y0062611D02*
X0045720D01*
X0036195Y0059182D02*
X0038989Y0061976D01*
Y0064008D01*
D14*
X0057364Y0047919D02*
Y0048681D01*
X0047117Y0052324D02*
X0047244Y0052451D01*
X0057364Y0061301D02*
Y0061936D01*
X0058260Y0050746D02*
X0058929Y0050077D01*
X0058260Y0050746D02*
Y0051780D01*
X0058929Y0050077D02*
X0059963D01*
X0057728Y0050355D02*
X0058808Y0049276D01*
X0067310Y0048006D02*
X0070866D01*
X0045466Y0052197D02*
X0045593Y0052324D01*
D15*
X0062865Y0060579D02*
X0066059D01*
X0066324Y0060844D01*
X0072071Y0061734D02*
X0072425D01*
X0074583Y0063892D01*
X0079980D01*
X0080656Y0063216D01*
Y0061352D02*
Y0063216D01*
X0066324Y0060844D02*
X0071181D01*
X0072071Y0061734D01*
X0079502Y0060198D02*
X0080656Y0061352D01*
D16*
X0043989Y0067771D02*
D03*
D17*
Y0072771D02*
D03*
X0038989Y0067771D02*
D03*
Y0072771D02*
D03*
D18*
X0061976Y0068199D02*
D03*
X0059436D02*
D03*
X0056896D02*
D03*
X0054356D02*
D03*
X0049276D02*
D03*
X0051816D02*
D03*
X0066802Y0062230D02*
D03*
Y0059690D02*
D03*
X0036195Y0059182D02*
D03*
Y0056642D02*
D03*
X0079502Y0057658D02*
D03*
Y0060198D02*
D03*
Y0062738D02*
D03*
Y0065278D02*
D03*
X0068834Y0044069D02*
D03*
Y0046609D02*
D03*
Y0049149D02*
D03*
Y0051689D02*
D03*
Y0054229D02*
D03*
X0046609Y0041402D02*
D03*
X0049149D02*
D03*
X0051689D02*
D03*
X0054229D02*
D03*
X0059309D02*
D03*
X0056769D02*
D03*
X0038227Y0051816D02*
D03*
Y0049276D02*
D03*
Y0046736D02*
D03*
Y0044196D02*
D03*
D19*
X0046736Y0068199D02*
D03*
X0061849Y0041402D02*
D03*
D20*
X0066802Y0064770D02*
D03*
X0036195Y0061722D02*
D03*
X0079502Y0067818D02*
D03*
X0068834Y0041529D02*
D03*
X0038227Y0041656D02*
D03*
D21*
X0072009Y0065913D02*
D03*
Y0068453D02*
D03*
X0036068Y0070104D02*
D03*
Y0067564D02*
D03*
X0072009Y0062738D02*
D03*
Y0060198D02*
D03*
D22*
X0041021Y0061595D02*
D03*
Y0053975D02*
D03*
X0038989Y0064008D02*
D03*
Y0056388D02*
D03*
X0075565Y0062611D02*
D03*
Y0070231D02*
D03*
X0076581Y0045212D02*
D03*
Y0052832D02*
D03*
X0074168Y0052705D02*
D03*
Y0045085D02*
D03*
X0071882Y0045212D02*
D03*
Y0052832D02*
D03*
D23*
X0066167Y0073787D02*
D03*
Y0071247D02*
D03*
D24*
X0074422Y0040894D02*
D03*
X0051816Y0074041D02*
D03*
M02*
