%FSAX43Y43*%
%MOMM*%
G71*
G01*
G75*
%ADD10O,2.000X1.000*%
%ADD11R,2.000X1.000*%
%ADD12R,1.000X2.000*%
%ADD13C,0.700*%
%ADD14C,0.254*%
%ADD15C,0.300*%
%ADD16R,2.000X2.000*%
%ADD17C,2.000*%
%ADD18C,1.500*%
%ADD19R,1.500X1.500*%
%ADD20R,1.500X1.500*%
%ADD21C,1.200*%
%ADD22C,1.400*%
%ADD23C,1.600*%
%ADD24C,6.000*%
%ADD25C,0.200*%
%ADD26C,0.127*%
D14*
X0038151Y0076124D02*
X0038913D01*
X0039166Y0076378D01*
X0038913Y0076632D01*
X0038405D01*
X0038151Y0076886D01*
X0038405Y0077139D01*
X0039166D01*
X0039674Y0076124D02*
X0040182D01*
X0039928D01*
Y0077647D01*
X0039674Y0077393D01*
X0046406Y0063170D02*
Y0064693D01*
X0047168D01*
X0047421Y0064439D01*
Y0063932D01*
X0047168Y0063678D01*
X0046406D01*
X0047929Y0063170D02*
X0048437D01*
X0048183D01*
Y0064693D01*
X0047929Y0064439D01*
X0049199D02*
X0049453Y0064693D01*
X0049961D01*
X0050215Y0064439D01*
Y0063424D01*
X0049961Y0063170D01*
X0049453D01*
X0049199Y0063424D01*
Y0064439D01*
X0035077Y0063856D02*
Y0065379D01*
X0035839D01*
X0036093Y0065125D01*
Y0064617D01*
X0035839Y0064363D01*
X0035077D01*
X0036601Y0065379D02*
X0037617D01*
Y0065125D01*
X0036601Y0064110D01*
Y0063856D01*
X0045618Y0070333D02*
Y0071856D01*
X0046380D01*
X0046634Y0071602D01*
Y0071094D01*
X0046380Y0070840D01*
X0045618D01*
X0048158Y0071856D02*
X0047650Y0071602D01*
X0047142Y0071094D01*
Y0070587D01*
X0047396Y0070333D01*
X0047904D01*
X0048158Y0070587D01*
Y0070840D01*
X0047904Y0071094D01*
X0047142D01*
X0040386Y0050419D02*
Y0051943D01*
X0041148D01*
X0041402Y0051689D01*
Y0051181D01*
X0041148Y0050927D01*
X0040386D01*
X0042925Y0051943D02*
X0041910D01*
Y0051181D01*
X0042417Y0051435D01*
X0042671D01*
X0042925Y0051181D01*
Y0050673D01*
X0042671Y0050419D01*
X0042163D01*
X0041910Y0050673D01*
X0042037Y0040640D02*
Y0042164D01*
X0042799D01*
X0043053Y0041910D01*
Y0041402D01*
X0042799Y0041148D01*
X0042037D01*
X0044322Y0040640D02*
Y0042164D01*
X0043561Y0041402D01*
X0044576D01*
X0065684Y0066904D02*
Y0068427D01*
X0066446D01*
X0066700Y0068173D01*
Y0067665D01*
X0066446Y0067411D01*
X0065684D01*
X0067208Y0068173D02*
X0067462Y0068427D01*
X0067970D01*
X0068224Y0068173D01*
Y0067919D01*
X0067970Y0067665D01*
X0067716D01*
X0067970D01*
X0068224Y0067411D01*
Y0067158D01*
X0067970Y0066904D01*
X0067462D01*
X0067208Y0067158D01*
X0078384Y0069952D02*
Y0071475D01*
X0079146D01*
X0079400Y0071221D01*
Y0070713D01*
X0079146Y0070459D01*
X0078384D01*
X0080924Y0069952D02*
X0079908D01*
X0080924Y0070967D01*
Y0071221D01*
X0080670Y0071475D01*
X0080162D01*
X0079908Y0071221D01*
X0067716Y0056363D02*
Y0057886D01*
X0068478D01*
X0068732Y0057632D01*
Y0057124D01*
X0068478Y0056870D01*
X0067716D01*
X0069240Y0056363D02*
X0069748D01*
X0069494D01*
Y0057886D01*
X0069240Y0057632D01*
X0068961Y0074295D02*
Y0072771D01*
X0069723D01*
X0069977Y0073025D01*
Y0074041D01*
X0069723Y0074295D01*
X0068961D01*
X0070485Y0072771D02*
X0070992D01*
X0070738D01*
Y0074295D01*
X0070485Y0074041D01*
X0074930Y0060960D02*
X0074676Y0061214D01*
X0074168D01*
X0073914Y0060960D01*
Y0059944D01*
X0074168Y0059690D01*
X0074676D01*
X0074930Y0059944D01*
X0075438Y0060960D02*
X0075691Y0061214D01*
X0076199D01*
X0076453Y0060960D01*
Y0060706D01*
X0076199Y0060452D01*
X0075945D01*
X0076199D01*
X0076453Y0060198D01*
Y0059944D01*
X0076199Y0059690D01*
X0075691D01*
X0075438Y0059944D01*
X0071907Y0071856D02*
X0071653Y0072110D01*
X0071145D01*
X0070891Y0071856D01*
Y0070841D01*
X0071145Y0070587D01*
X0071653D01*
X0071907Y0070841D01*
X0073431Y0070587D02*
X0072415D01*
X0073431Y0071602D01*
Y0071856D01*
X0073177Y0072110D01*
X0072669D01*
X0072415Y0071856D01*
X0035966Y0073507D02*
X0035712Y0073761D01*
X0035204D01*
X0034950Y0073507D01*
Y0072492D01*
X0035204Y0072238D01*
X0035712D01*
X0035966Y0072492D01*
X0036474Y0072238D02*
X0036982D01*
X0036728D01*
Y0073761D01*
X0036474Y0073507D01*
X0071501Y0055880D02*
X0072517D01*
Y0055626D01*
X0071501Y0054610D01*
Y0054356D01*
X0074930Y0055880D02*
X0074422Y0055626D01*
X0073914Y0055118D01*
Y0054610D01*
X0074168Y0054356D01*
X0074676D01*
X0074930Y0054610D01*
Y0054864D01*
X0074676Y0055118D01*
X0073914D01*
X0077216Y0055880D02*
X0076200D01*
Y0055118D01*
X0076708Y0055372D01*
X0076962D01*
X0077216Y0055118D01*
Y0054610D01*
X0076962Y0054356D01*
X0076454D01*
X0076200Y0054610D01*
X0075819Y0071374D02*
Y0072898D01*
X0075057Y0072136D01*
X0076073D01*
X0043434Y0058420D02*
X0042418D01*
X0043434Y0059436D01*
Y0059690D01*
X0043180Y0059944D01*
X0042672D01*
X0042418Y0059690D01*
X0038735Y0059944D02*
X0039243D01*
X0038989D01*
Y0061468D01*
X0038735Y0061214D01*
D25*
X0042739Y0065271D02*
G03*
X0040239Y0065271I-0001250J0000000D01*
G01*
X0042154D02*
X0042739D01*
X0040239D02*
X0040814D01*
Y0075271D01*
X0042154D01*
Y0065271D02*
Y0075271D01*
X0045466Y0069469D02*
X0063246D01*
X0045466Y0066929D02*
Y0069469D01*
Y0066929D02*
X0063246D01*
Y0069469D01*
X0046844Y0060001D02*
Y0061301D01*
Y0048281D02*
Y0049981D01*
Y0048281D02*
X0048544D01*
X0058564D02*
X0060264D01*
Y0049981D01*
Y0060001D02*
Y0061701D01*
X0058564D02*
X0060264D01*
X0047244D02*
X0048544D01*
X0046844Y0061301D02*
X0047244Y0061701D01*
X0065532Y0058420D02*
Y0066040D01*
Y0058420D02*
X0068072D01*
Y0066040D01*
X0065532D02*
X0068072D01*
X0034925Y0055372D02*
Y0062992D01*
Y0055372D02*
X0037465D01*
Y0062992D01*
X0034925D02*
X0037465D01*
X0078232Y0069088D02*
X0080772D01*
Y0056388D02*
Y0069088D01*
X0078232Y0056388D02*
Y0069088D01*
Y0056388D02*
X0080772D01*
X0067564Y0055499D02*
X0070104D01*
X0067564Y0040259D02*
X0070104D01*
X0067564D02*
Y0055499D01*
X0070104Y0040259D02*
Y0055499D01*
X0070739Y0064643D02*
X0073279D01*
X0070739D02*
Y0069723D01*
X0073279D01*
Y0064643D02*
Y0069723D01*
X0034798Y0071374D02*
X0037338D01*
Y0066294D02*
Y0071374D01*
X0034798Y0066294D02*
X0037338D01*
X0034798D02*
Y0071374D01*
X0045339Y0040132D02*
X0063119D01*
Y0042672D01*
X0045339D02*
X0063119D01*
X0045339Y0040132D02*
Y0042672D01*
X0036957Y0040386D02*
X0039497D01*
X0036957D02*
Y0053086D01*
X0039497Y0040386D02*
Y0053086D01*
X0036957D02*
X0039497D01*
X0040259Y0060325D02*
X0041021D01*
X0040259Y0055245D02*
Y0060325D01*
Y0055245D02*
X0041783D01*
Y0060325D01*
X0041021D02*
X0041783D01*
X0038227Y0062738D02*
X0038989D01*
X0038227Y0057658D02*
Y0062738D01*
Y0057658D02*
X0039751D01*
Y0062738D01*
X0038989D02*
X0039751D01*
X0070739Y0064008D02*
X0073279D01*
Y0058928D02*
Y0064008D01*
X0070739Y0058928D02*
X0073279D01*
X0070739D02*
Y0064008D01*
X0075565Y0063881D02*
X0076327D01*
Y0068961D01*
X0074803D02*
X0076327D01*
X0074803Y0063881D02*
Y0068961D01*
Y0063881D02*
X0075565D01*
X0076581Y0046482D02*
X0077343D01*
Y0051562D01*
X0075819D02*
X0077343D01*
X0075819Y0046482D02*
Y0051562D01*
Y0046482D02*
X0076581D01*
X0073406Y0051435D02*
X0074168D01*
X0073406Y0046355D02*
Y0051435D01*
Y0046355D02*
X0074930D01*
Y0051435D01*
X0074168D02*
X0074930D01*
X0071882Y0046482D02*
X0072644D01*
Y0051562D01*
X0071120D02*
X0072644D01*
X0071120Y0046482D02*
Y0051562D01*
Y0046482D02*
X0071882D01*
D26*
X0060667Y0073967D02*
G03*
X0060667Y0071067I0000000J-0001450D01*
G01*
Y0073967D02*
X0061767D01*
X0060667Y0071067D02*
X0061767D01*
Y0074930D02*
X0068167D01*
X0061767Y0070104D02*
Y0074930D01*
Y0070104D02*
X0068167D01*
Y0074930D01*
M02*
