%FSAX43Y43*%
%MOMM*%
G71*
G01*
G75*
G04 Layer_Color=12632256*
%ADD10O,2.000X1.000*%
%ADD11R,2.000X1.000*%
%ADD12R,1.000X2.000*%
%ADD13C,0.700*%
%ADD14C,0.254*%
%ADD15C,0.300*%
%ADD16R,2.000X2.000*%
%ADD17C,2.000*%
%ADD18C,1.500*%
%ADD19R,1.500X1.500*%
%ADD20R,1.500X1.500*%
%ADD21C,1.200*%
%ADD22C,1.400*%
%ADD23C,1.600*%
%ADD24C,6.000*%
%ADD25C,0.200*%
%ADD26C,0.127*%
%ADD27R,2.203X2.203*%
%ADD28C,2.203*%
%ADD29C,1.703*%
%ADD30R,1.703X1.703*%
%ADD31R,1.703X1.703*%
%ADD32C,1.403*%
%ADD33C,1.603*%
%ADD34C,1.803*%
%ADD35C,6.203*%
D16*
X0043989Y0067771D02*
D03*
D17*
Y0072771D02*
D03*
X0038989Y0067771D02*
D03*
Y0072771D02*
D03*
D18*
X0061976Y0068199D02*
D03*
X0059436D02*
D03*
X0056896D02*
D03*
X0054356D02*
D03*
X0049276D02*
D03*
X0051816D02*
D03*
X0066802Y0062230D02*
D03*
Y0059690D02*
D03*
X0036195Y0059182D02*
D03*
Y0056642D02*
D03*
X0079502Y0057658D02*
D03*
Y0060198D02*
D03*
Y0062738D02*
D03*
Y0065278D02*
D03*
X0068834Y0044069D02*
D03*
Y0046609D02*
D03*
Y0049149D02*
D03*
Y0051689D02*
D03*
Y0054229D02*
D03*
X0046609Y0041402D02*
D03*
X0049149D02*
D03*
X0051689D02*
D03*
X0054229D02*
D03*
X0059309D02*
D03*
X0056769D02*
D03*
X0038227Y0051816D02*
D03*
Y0049276D02*
D03*
Y0046736D02*
D03*
Y0044196D02*
D03*
D19*
X0046736Y0068199D02*
D03*
X0061849Y0041402D02*
D03*
D20*
X0066802Y0064770D02*
D03*
X0036195Y0061722D02*
D03*
X0079502Y0067818D02*
D03*
X0068834Y0041529D02*
D03*
X0038227Y0041656D02*
D03*
D21*
X0072009Y0065913D02*
D03*
Y0068453D02*
D03*
X0036068Y0070104D02*
D03*
Y0067564D02*
D03*
X0072009Y0062738D02*
D03*
Y0060198D02*
D03*
D22*
X0041021Y0061595D02*
D03*
Y0053975D02*
D03*
X0038989Y0064008D02*
D03*
Y0056388D02*
D03*
X0075565Y0062611D02*
D03*
Y0070231D02*
D03*
X0076581Y0045212D02*
D03*
Y0052832D02*
D03*
X0074168Y0052705D02*
D03*
Y0045085D02*
D03*
X0071882Y0045212D02*
D03*
Y0052832D02*
D03*
D23*
X0066167Y0073787D02*
D03*
Y0071247D02*
D03*
M02*
