%FSAX43Y43*%
%MOMM*%
G71*
G01*
G75*
G04 Layer_Color=2752767*
%ADD10O,2.000X1.000*%
%ADD11R,2.000X1.000*%
%ADD12R,1.000X2.000*%
%ADD13C,0.700*%
%ADD14C,0.254*%
%ADD15C,0.300*%
%ADD16R,2.000X2.000*%
%ADD17C,2.000*%
%ADD18C,1.500*%
%ADD19R,1.500X1.500*%
%ADD20R,1.500X1.500*%
%ADD21C,1.200*%
%ADD22C,1.400*%
%ADD23C,1.600*%
%ADD24C,6.000*%
%ADD25C,0.200*%
%ADD26C,0.127*%
%ADD27R,2.203X2.203*%
%ADD28C,2.203*%
%ADD29C,1.703*%
%ADD30R,1.703X1.703*%
%ADD31R,1.703X1.703*%
%ADD32C,1.403*%
%ADD33C,1.603*%
%ADD34C,1.803*%
%ADD35C,6.203*%
%ADD36C,0.169*%
D26*
X0043481Y0067263D02*
Y0068279D01*
X0044497D01*
Y0067263D01*
X0043481D01*
Y0072263D02*
Y0073279D01*
X0044497D01*
Y0072263D01*
X0043481D01*
X0038481Y0067263D02*
Y0068279D01*
X0039497D01*
Y0067263D01*
X0038481D01*
Y0072263D02*
Y0073279D01*
X0039497D01*
Y0072263D01*
X0038481D01*
X0072009Y0065405D02*
X0071501Y0066421D01*
X0072517D01*
X0072009Y0065405D01*
Y0067945D02*
X0071501Y0068961D01*
X0072517D01*
X0072009Y0067945D01*
X0036068Y0069596D02*
X0035560Y0070612D01*
X0036576D01*
X0036068Y0069596D01*
Y0067056D02*
X0035560Y0068072D01*
X0036576D01*
X0036068Y0067056D01*
X0041021Y0061087D02*
X0041275Y0061341D01*
X0041529D01*
X0041275Y0061595D01*
X0041529Y0061849D01*
X0041275D01*
X0041021Y0062103D01*
X0040767Y0061849D01*
X0040513D01*
X0040767Y0061595D01*
X0040513Y0061341D01*
X0040767D01*
X0041021Y0061087D01*
Y0053467D02*
X0041275Y0053721D01*
X0041529D01*
X0041275Y0053975D01*
X0041529Y0054229D01*
X0041275D01*
X0041021Y0054483D01*
X0040767Y0054229D01*
X0040513D01*
X0040767Y0053975D01*
X0040513Y0053721D01*
X0040767D01*
X0041021Y0053467D01*
X0038989Y0063500D02*
X0039243Y0063754D01*
X0039497D01*
X0039243Y0064008D01*
X0039497Y0064262D01*
X0039243D01*
X0038989Y0064516D01*
X0038735Y0064262D01*
X0038481D01*
X0038735Y0064008D01*
X0038481Y0063754D01*
X0038735D01*
X0038989Y0063500D01*
Y0055880D02*
X0039243Y0056134D01*
X0039497D01*
X0039243Y0056388D01*
X0039497Y0056642D01*
X0039243D01*
X0038989Y0056896D01*
X0038735Y0056642D01*
X0038481D01*
X0038735Y0056388D01*
X0038481Y0056134D01*
X0038735D01*
X0038989Y0055880D01*
X0065659Y0073279D02*
X0065913Y0073787D01*
X0065659Y0074295D01*
X0066167Y0074041D01*
X0066675Y0074295D01*
X0066421Y0073787D01*
X0066675Y0073279D01*
X0066167Y0073533D01*
X0065659Y0073279D01*
Y0070739D02*
X0065913Y0071247D01*
X0065659Y0071755D01*
X0066167Y0071501D01*
X0066675Y0071755D01*
X0066421Y0071247D01*
X0066675Y0070739D01*
X0066167Y0070993D01*
X0065659Y0070739D01*
X0072009Y0062230D02*
X0071501Y0063246D01*
X0072517D01*
X0072009Y0062230D01*
Y0059690D02*
X0071501Y0060706D01*
X0072517D01*
X0072009Y0059690D01*
X0075565Y0062103D02*
X0075819Y0062357D01*
X0076073D01*
X0075819Y0062611D01*
X0076073Y0062865D01*
X0075819D01*
X0075565Y0063119D01*
X0075311Y0062865D01*
X0075057D01*
X0075311Y0062611D01*
X0075057Y0062357D01*
X0075311D01*
X0075565Y0062103D01*
Y0069723D02*
X0075819Y0069977D01*
X0076073D01*
X0075819Y0070231D01*
X0076073Y0070485D01*
X0075819D01*
X0075565Y0070739D01*
X0075311Y0070485D01*
X0075057D01*
X0075311Y0070231D01*
X0075057Y0069977D01*
X0075311D01*
X0075565Y0069723D01*
X0076581Y0044704D02*
X0076835Y0044958D01*
X0077089D01*
X0076835Y0045212D01*
X0077089Y0045466D01*
X0076835D01*
X0076581Y0045720D01*
X0076327Y0045466D01*
X0076073D01*
X0076327Y0045212D01*
X0076073Y0044958D01*
X0076327D01*
X0076581Y0044704D01*
Y0052324D02*
X0076835Y0052578D01*
X0077089D01*
X0076835Y0052832D01*
X0077089Y0053086D01*
X0076835D01*
X0076581Y0053340D01*
X0076327Y0053086D01*
X0076073D01*
X0076327Y0052832D01*
X0076073Y0052578D01*
X0076327D01*
X0076581Y0052324D01*
X0074168Y0052197D02*
X0074422Y0052451D01*
X0074676D01*
X0074422Y0052705D01*
X0074676Y0052959D01*
X0074422D01*
X0074168Y0053213D01*
X0073914Y0052959D01*
X0073660D01*
X0073914Y0052705D01*
X0073660Y0052451D01*
X0073914D01*
X0074168Y0052197D01*
Y0044577D02*
X0074422Y0044831D01*
X0074676D01*
X0074422Y0045085D01*
X0074676Y0045339D01*
X0074422D01*
X0074168Y0045593D01*
X0073914Y0045339D01*
X0073660D01*
X0073914Y0045085D01*
X0073660Y0044831D01*
X0073914D01*
X0074168Y0044577D01*
X0071882Y0044704D02*
X0072136Y0044958D01*
X0072390D01*
X0072136Y0045212D01*
X0072390Y0045466D01*
X0072136D01*
X0071882Y0045720D01*
X0071628Y0045466D01*
X0071374D01*
X0071628Y0045212D01*
X0071374Y0044958D01*
X0071628D01*
X0071882Y0044704D01*
Y0052324D02*
X0072136Y0052578D01*
X0072390D01*
X0072136Y0052832D01*
X0072390Y0053086D01*
X0072136D01*
X0071882Y0053340D01*
X0071628Y0053086D01*
X0071374D01*
X0071628Y0052832D01*
X0071374Y0052578D01*
X0071628D01*
X0071882Y0052324D01*
X0074168Y0040640D02*
Y0040386D01*
X0074676D01*
Y0040640D01*
X0074930D01*
Y0041148D01*
X0074676D01*
Y0041402D01*
X0074168D01*
Y0041148D01*
X0073914D01*
Y0040640D01*
X0074168D01*
X0051562Y0073787D02*
Y0073533D01*
X0052070D01*
Y0073787D01*
X0052324D01*
Y0074295D01*
X0052070D01*
Y0074549D01*
X0051562D01*
Y0074295D01*
X0051308D01*
Y0073787D01*
X0051562D01*
D36*
X0062484Y0068199D02*
G03*
X0062484Y0068199I-0000508J0000000D01*
G01*
X0059944D02*
G03*
X0059944Y0068199I-0000508J0000000D01*
G01*
X0057404D02*
G03*
X0057404Y0068199I-0000508J0000000D01*
G01*
X0054864D02*
G03*
X0054864Y0068199I-0000508J0000000D01*
G01*
X0049784D02*
G03*
X0049784Y0068199I-0000508J0000000D01*
G01*
X0047244D02*
G03*
X0047244Y0068199I-0000508J0000000D01*
G01*
X0052324D02*
G03*
X0052324Y0068199I-0000508J0000000D01*
G01*
X0067310Y0064770D02*
G03*
X0067310Y0064770I-0000508J0000000D01*
G01*
Y0062230D02*
G03*
X0067310Y0062230I-0000508J0000000D01*
G01*
Y0059690D02*
G03*
X0067310Y0059690I-0000508J0000000D01*
G01*
X0036703Y0061722D02*
G03*
X0036703Y0061722I-0000508J0000000D01*
G01*
Y0059182D02*
G03*
X0036703Y0059182I-0000508J0000000D01*
G01*
Y0056642D02*
G03*
X0036703Y0056642I-0000508J0000000D01*
G01*
X0080010Y0057658D02*
G03*
X0080010Y0057658I-0000508J0000000D01*
G01*
Y0060198D02*
G03*
X0080010Y0060198I-0000508J0000000D01*
G01*
Y0062738D02*
G03*
X0080010Y0062738I-0000508J0000000D01*
G01*
Y0065278D02*
G03*
X0080010Y0065278I-0000508J0000000D01*
G01*
Y0067818D02*
G03*
X0080010Y0067818I-0000508J0000000D01*
G01*
X0069342Y0041529D02*
G03*
X0069342Y0041529I-0000508J0000000D01*
G01*
Y0044069D02*
G03*
X0069342Y0044069I-0000508J0000000D01*
G01*
Y0046609D02*
G03*
X0069342Y0046609I-0000508J0000000D01*
G01*
Y0049149D02*
G03*
X0069342Y0049149I-0000508J0000000D01*
G01*
Y0051689D02*
G03*
X0069342Y0051689I-0000508J0000000D01*
G01*
Y0054229D02*
G03*
X0069342Y0054229I-0000508J0000000D01*
G01*
X0047117Y0041402D02*
G03*
X0047117Y0041402I-0000508J0000000D01*
G01*
X0049657D02*
G03*
X0049657Y0041402I-0000508J0000000D01*
G01*
X0052197D02*
G03*
X0052197Y0041402I-0000508J0000000D01*
G01*
X0054737D02*
G03*
X0054737Y0041402I-0000508J0000000D01*
G01*
X0059817D02*
G03*
X0059817Y0041402I-0000508J0000000D01*
G01*
X0062357D02*
G03*
X0062357Y0041402I-0000508J0000000D01*
G01*
X0057277D02*
G03*
X0057277Y0041402I-0000508J0000000D01*
G01*
X0038735Y0051816D02*
G03*
X0038735Y0051816I-0000508J0000000D01*
G01*
Y0049276D02*
G03*
X0038735Y0049276I-0000508J0000000D01*
G01*
Y0046736D02*
G03*
X0038735Y0046736I-0000508J0000000D01*
G01*
Y0044196D02*
G03*
X0038735Y0044196I-0000508J0000000D01*
G01*
Y0041656D02*
G03*
X0038735Y0041656I-0000508J0000000D01*
G01*
M02*
