M48
;Layer_Color=9474304
;FILE_FORMAT=4:3
METRIC
;TYPE=PLATED
T1F00S00C0.700
T2F00S00C0.800
T3F00S00C0.850
T4F00S00C0.900
T5F00S00C1.000
T6F00S00C3.000
%
T01
X0072009Y0060198
Y0062738
Y0065913
Y0068453
X0036068Y0067564
Y0070104
T02
X0066167Y0071247
Y0073787
T03
X0041021Y0053975
Y0061595
X0075565Y0062611
Y0070231
X0076581Y0052832
X0074168Y0052705
X0071882Y0052832
Y0045212
X0074168Y0045085
X0076581Y0045212
X0038989Y0056388
Y0064008
T04
X0079502Y0057658
Y0060198
Y0062738
Y0065278
Y0067818
X0066802Y0064770
Y0062230
Y0059690
X0068834Y0054229
Y0051689
Y0049149
Y0046609
Y0044069
Y0041529
X0061849Y0041402
X0059309
X0056769
X0054229
X0051689
X0049149
X0046609
X0046736Y0068199
X0049276
X0051816
X0054356
X0056896
X0059436
X0061976
X0036195Y0061722
Y0059182
Y0056642
X0038227Y0051816
Y0049276
Y0046736
Y0044196
Y0041656
T05
X0043989Y0067771
Y0072771
X0038989
Y0067771
T06
X0074422Y0040894
X0051816Y0074041
M30
